<mxfile host="65bd71144e" scale="1" border="10">
    <diagram id="5IMSoKu6TXH3aLEMVBPB" name="Page-1">
        <mxGraphModel dx="1644" dy="1565" grid="1" gridSize="10" guides="1" tooltips="1" connect="1" arrows="1" fold="1" page="1" pageScale="1" pageWidth="850" pageHeight="1100" background="#ffffff" math="0" shadow="0">
            <root>
                <mxCell id="0"/>
                <mxCell id="1" parent="0"/>
                <mxCell id="2" value="" style="rounded=0;whiteSpace=wrap;html=1;sketch=1;fillColor=#f5f5f5;strokeColor=#666666;fontColor=#333333;" parent="1" vertex="1">
                    <mxGeometry x="93" y="37" width="470" height="380" as="geometry"/>
                </mxCell>
                <mxCell id="3" value="" style="shape=umlActor;verticalLabelPosition=bottom;verticalAlign=top;html=1;outlineConnect=0;sketch=1;fillColor=#0050ef;strokeColor=#001DBC;fontColor=#ffffff;" parent="1" vertex="1">
                    <mxGeometry x="-20" y="238" width="30" height="80" as="geometry"/>
                </mxCell>
                <mxCell id="4" value="" style="endArrow=classic;html=1;sketch=1;" parent="1" edge="1">
                    <mxGeometry width="50" height="50" relative="1" as="geometry">
                        <mxPoint x="20" y="280" as="sourcePoint"/>
                        <mxPoint x="130" y="280" as="targetPoint"/>
                    </mxGeometry>
                </mxCell>
                <mxCell id="33" value="用户&lt;br&gt;请求" style="edgeLabel;html=1;align=center;verticalAlign=middle;resizable=0;points=[];fontSize=14;" parent="4" vertex="1" connectable="0">
                    <mxGeometry x="-0.0762" y="-1" relative="1" as="geometry">
                        <mxPoint as="offset"/>
                    </mxGeometry>
                </mxCell>
                <mxCell id="5" value="工&lt;br&gt;作&lt;br&gt;线&lt;br&gt;程&lt;br&gt;池" style="rounded=1;whiteSpace=wrap;html=1;fontSize=16;fillColor=#b0e3e6;strokeColor=#0e8088;sketch=1;" parent="1" vertex="1">
                    <mxGeometry x="140" y="180" width="120" height="200" as="geometry"/>
                </mxCell>
                <mxCell id="6" value="异步请&lt;br&gt;求队列" style="shape=process;whiteSpace=wrap;html=1;backgroundOutline=1;fontSize=16;sketch=1;" parent="1" vertex="1">
                    <mxGeometry x="360" y="80" width="120" height="60" as="geometry"/>
                </mxCell>
                <mxCell id="7" value="异&lt;br&gt;步&lt;br&gt;线&lt;br&gt;程&lt;br&gt;池" style="rounded=1;whiteSpace=wrap;html=1;fontSize=16;spacing=2;fillColor=#d0cee2;strokeColor=#56517e;sketch=1;" parent="1" vertex="1">
                    <mxGeometry x="638" y="180" width="120" height="200" as="geometry"/>
                </mxCell>
                <mxCell id="9" value="" style="endArrow=classic;html=1;dashed=1;exitX=-0.018;exitY=0.873;exitDx=0;exitDy=0;entryX=1;entryY=0.75;entryDx=0;entryDy=0;exitPerimeter=0;sketch=1;" parent="1" source="7" edge="1">
                    <mxGeometry width="50" height="50" relative="1" as="geometry">
                        <mxPoint x="610" y="354" as="sourcePoint"/>
                        <mxPoint x="260" y="354" as="targetPoint"/>
                    </mxGeometry>
                </mxCell>
                <mxCell id="10" value="asyncContext.dispatch()" style="edgeLabel;html=1;align=center;verticalAlign=middle;resizable=0;points=[];fontSize=14;fontColor=#009900;" parent="9" vertex="1" connectable="0">
                    <mxGeometry x="0.0429" y="-1" relative="1" as="geometry">
                        <mxPoint x="-27.34" as="offset"/>
                    </mxGeometry>
                </mxCell>
                <mxCell id="16" value="" style="endArrow=classic;html=1;dashed=1;exitX=0.5;exitY=1;exitDx=0;exitDy=0;entryX=0.998;entryY=0.188;entryDx=0;entryDy=0;entryPerimeter=0;sketch=1;" parent="1" source="6" target="5" edge="1">
                    <mxGeometry width="50" height="50" relative="1" as="geometry">
                        <mxPoint x="220" y="270" as="sourcePoint"/>
                        <mxPoint x="270" y="220" as="targetPoint"/>
                        <Array as="points">
                            <mxPoint x="420" y="218"/>
                        </Array>
                    </mxGeometry>
                </mxCell>
                <mxCell id="21" value="&lt;span style=&quot;font-size: 14px&quot;&gt;asyncListener.onError()&lt;/span&gt;" style="rounded=0;whiteSpace=wrap;html=1;fontSize=14;sketch=1;strokeColor=#ae4132;fillColor=#fad9d5;" parent="1" vertex="1">
                    <mxGeometry x="325" y="198" width="175" height="40" as="geometry"/>
                </mxCell>
                <mxCell id="22" value="" style="endArrow=classic;html=1;dashed=1;entryX=-0.018;entryY=0.188;entryDx=0;entryDy=0;exitX=1;exitY=0.5;exitDx=0;exitDy=0;entryPerimeter=0;sketch=1;" parent="1" source="21" target="7" edge="1">
                    <mxGeometry width="50" height="50" relative="1" as="geometry">
                        <mxPoint x="420" y="270" as="sourcePoint"/>
                        <mxPoint x="470" y="220" as="targetPoint"/>
                    </mxGeometry>
                </mxCell>
                <mxCell id="23" value="future.cancel()" style="edgeLabel;html=1;align=center;verticalAlign=middle;resizable=0;points=[];fontSize=14;labelBackgroundColor=#ffffff;fontColor=#FF0000;" parent="22" vertex="1" connectable="0">
                    <mxGeometry x="-0.1436" y="-1" relative="1" as="geometry">
                        <mxPoint x="7" y="-1" as="offset"/>
                    </mxGeometry>
                </mxCell>
                <mxCell id="24" value="" style="endArrow=classic;html=1;dashed=1;entryX=1;entryY=0.75;entryDx=0;entryDy=0;exitX=-0.01;exitY=0.428;exitDx=0;exitDy=0;exitPerimeter=0;sketch=1;" parent="1" source="7" edge="1">
                    <mxGeometry width="50" height="50" relative="1" as="geometry">
                        <mxPoint x="630" y="265" as="sourcePoint"/>
                        <mxPoint x="260" y="265" as="targetPoint"/>
                    </mxGeometry>
                </mxCell>
                <mxCell id="25" value="asyncContext.dispatch()" style="edgeLabel;html=1;align=center;verticalAlign=middle;resizable=0;points=[];fontSize=14;fontColor=#FF0000;labelBackgroundColor=#ffffff;" parent="24" vertex="1" connectable="0">
                    <mxGeometry x="0.0429" y="-1" relative="1" as="geometry">
                        <mxPoint x="-28.3" as="offset"/>
                    </mxGeometry>
                </mxCell>
                <mxCell id="26" value="&lt;font color=&quot;#009900&quot;&gt;servletRequest.startAsync()&lt;/font&gt;" style="endArrow=classic;html=1;dashed=1;fontSize=14;entryX=0.007;entryY=0.668;entryDx=0;entryDy=0;entryPerimeter=0;sketch=1;" parent="1" target="7" edge="1">
                    <mxGeometry x="-0.1553" width="50" height="50" relative="1" as="geometry">
                        <mxPoint x="260" y="313" as="sourcePoint"/>
                        <mxPoint x="637" y="313" as="targetPoint"/>
                        <mxPoint as="offset"/>
                    </mxGeometry>
                </mxCell>
                <mxCell id="27" value="" style="endArrow=classic;html=1;sketch=1;" parent="1" edge="1">
                    <mxGeometry width="50" height="50" relative="1" as="geometry">
                        <mxPoint x="20" y="308" as="sourcePoint"/>
                        <mxPoint x="130" y="308" as="targetPoint"/>
                    </mxGeometry>
                </mxCell>
                <mxCell id="28" value="" style="endArrow=classic;html=1;sketch=1;" parent="1" edge="1">
                    <mxGeometry width="50" height="50" relative="1" as="geometry">
                        <mxPoint x="20" y="250" as="sourcePoint"/>
                        <mxPoint x="130" y="250" as="targetPoint"/>
                    </mxGeometry>
                </mxCell>
                <mxCell id="34" value="异常处理" style="text;html=1;strokeColor=none;fillColor=none;align=center;verticalAlign=middle;whiteSpace=wrap;rounded=0;fontSize=14;" parent="1" vertex="1">
                    <mxGeometry x="668" y="70" width="80" height="20" as="geometry"/>
                </mxCell>
                <mxCell id="35" value="正常处理" style="text;html=1;strokeColor=none;fillColor=none;align=center;verticalAlign=middle;whiteSpace=wrap;rounded=0;fontSize=14;" parent="1" vertex="1">
                    <mxGeometry x="668" y="103" width="80" height="20" as="geometry"/>
                </mxCell>
                <mxCell id="36" value="Tomcat" style="text;html=1;strokeColor=none;fillColor=none;align=center;verticalAlign=middle;whiteSpace=wrap;rounded=0;fontSize=30;fontStyle=1" parent="1" vertex="1">
                    <mxGeometry x="288" width="80" height="20" as="geometry"/>
                </mxCell>
                <mxCell id="39" value="" style="rounded=0;whiteSpace=wrap;html=1;labelBackgroundColor=#FF0000;sketch=0;fontSize=30;fontColor=#FF0000;fillColor=#FF0000;strokeColor=none;" parent="1" vertex="1">
                    <mxGeometry x="630" y="75" width="30" height="10" as="geometry"/>
                </mxCell>
                <mxCell id="40" value="" style="rounded=0;whiteSpace=wrap;html=1;labelBackgroundColor=#FF0000;sketch=0;fontSize=30;fontColor=#FF0000;strokeColor=none;fillColor=#009900;" parent="1" vertex="1">
                    <mxGeometry x="630" y="108" width="30" height="10" as="geometry"/>
                </mxCell>
            </root>
        </mxGraphModel>
    </diagram>
</mxfile>